HIERARCHY
ROOT SimulationBone
{
	OFFSET 0.000000 0.000000 0.000000
	CHANNELS 6 Xposition Yposition Zposition Zrotation Yrotation Xrotation 
	JOINT Hips
	{
		OFFSET 0.000000 0.000000 0.000000
		CHANNELS 6 Xposition Yposition Zposition Zrotation Yrotation Xrotation 
		JOINT LeftUpLeg
		{
			OFFSET 0.103459 1.857823 10.548503
			CHANNELS 3 Zrotation Yrotation Xrotation
			JOINT LeftLeg
			{
				OFFSET 43.499996 -0.000023 0.000000
				CHANNELS 3 Zrotation Yrotation Xrotation
				JOINT LeftFoot
				{
					OFFSET 42.372200 0.000004 0.000000
					CHANNELS 3 Zrotation Yrotation Xrotation
					JOINT LeftToe
					{
						OFFSET 17.300018 0.000006 0.000005
						CHANNELS 3 Zrotation Yrotation Xrotation
						End Site
						{
							OFFSET 0.000000 0.000000 0.000000
						}
					}
				}
			}
		}
		JOINT RightUpLeg
		{
			OFFSET 0.103455 1.857822 -10.548502
			CHANNELS 3 Zrotation Yrotation Xrotation
			JOINT RightLeg
			{
				OFFSET 43.500046 0.000008 0.000013
				CHANNELS 3 Zrotation Yrotation Xrotation
				JOINT RightFoot
				{
					OFFSET 42.372261 -0.000023 0.000013
					CHANNELS 3 Zrotation Yrotation Xrotation
					JOINT RightToe
					{
						OFFSET 17.299988 -0.000007 0.000011
						CHANNELS 3 Zrotation Yrotation Xrotation
						End Site
						{
							OFFSET 0.000000 0.000000 0.000000
						}
					}
				}
			}
		}
		JOINT Spine
		{
			OFFSET 6.901964 -2.603734 -0.000001
			CHANNELS 3 Zrotation Yrotation Xrotation
			JOINT Spine1
			{
				OFFSET 12.588106 0.000013 -0.000000
				CHANNELS 3 Zrotation Yrotation Xrotation
				JOINT Spine2
				{
					OFFSET 12.343193 -0.000017 0.000001
					CHANNELS 3 Zrotation Yrotation Xrotation
					JOINT Neck
					{
						OFFSET 25.832893 -0.000002 -0.000002
						CHANNELS 3 Zrotation Yrotation Xrotation
						JOINT Head
						{
							OFFSET 11.766612 0.000007 0.000002
							CHANNELS 3 Zrotation Yrotation Xrotation
							End Site
							{
								OFFSET 0.000000 0.000000 0.000000
							}
						}
					}
					JOINT LeftShoulder
					{
						OFFSET 19.745903 -1.480356 6.000103
						CHANNELS 3 Zrotation Yrotation Xrotation
						JOINT LeftArm
						{
							OFFSET 11.284128 0.000005 -0.000009
							CHANNELS 3 Zrotation Yrotation Xrotation
							JOINT LeftForeArm
							{
								OFFSET 33.000053 -0.000022 0.000028
								CHANNELS 3 Zrotation Yrotation Xrotation
								JOINT LeftHand
								{
									OFFSET 25.200006 0.000028 0.000005
									CHANNELS 3 Zrotation Yrotation Xrotation
									End Site
									{
										OFFSET 0.000000 0.000000 0.000000
									}
								}
							}
						}
					}
					JOINT RightShoulder
					{
						OFFSET 19.746094 -1.480350 -6.000075
						CHANNELS 3 Zrotation Yrotation Xrotation
						JOINT RightArm
						{
							OFFSET 11.284135 -0.000011 -0.000017
							CHANNELS 3 Zrotation Yrotation Xrotation
							JOINT RightForeArm
							{
								OFFSET 33.000092 0.000037 0.000003
								CHANNELS 3 Zrotation Yrotation Xrotation
								JOINT RightHand
								{
									OFFSET 25.199785 0.000114 0.000427
									CHANNELS 3 Zrotation Yrotation Xrotation
									End Site
									{
										OFFSET 0.000000 0.000000 0.000000
									}
								}
							}
						}
					}
				}
			}
		}
	}
}
MOTION
Frames: 13
Frame Time: 0.016667
-311.024087 0.000000 412.844986 0.000000 -79.002385 0.000000 -5.896992 83.504089 1.882941 89.137741 3.061645 -179.172910 138.740375 -1.312604 -178.015371 -44.050170 3.507657 0.057926 80.254811 -1.421446 -5.447341 21.454558 0.003100 0.000016 -179.997177 -6.992294 -173.775189 -44.716739 2.727538 -4.982292 99.088572 2.165907 -12.866292 21.454551 -0.003088 -0.000001 12.531992 -0.098798 1.815581 15.044446 -0.433074 3.602741 14.727006 -0.411453 3.605270 0.777642 -8.251433 -5.975697 -27.584987 12.910050 -13.694351 -171.523316 -74.424749 -10.092724 9.123187 50.537644 26.905315 -39.188028 -24.249066 2.068280 11.324713 -46.938121 -2.849626 -154.539009 82.618567 27.339102 -18.941043 -39.257000 -23.480238 -55.477749 20.677602 -2.319815 -11.078330 20.035279 -17.746276 
-310.478294 0.000000 415.414919 0.000000 -79.802365 0.000000 -6.057196 83.890866 1.871417 89.110671 2.791159 -179.346663 139.451913 -1.486545 -179.449349 -40.224166 2.799103 1.571168 78.552909 -2.558698 -5.433176 21.454556 0.003104 0.000016 -177.445345 -6.879023 -175.821974 -42.189621 2.895219 -4.730881 97.287547 1.824565 -12.662034 21.454552 -0.003084 -0.000002 12.344274 -0.260018 1.855976 14.663944 -0.753379 3.663895 14.346507 -0.731391 3.668354 0.822102 -7.793508 -5.697077 -26.698846 12.715234 -13.103376 -170.106520 -74.273765 -11.544512 10.766669 51.586346 29.551402 -38.258962 -23.722536 2.007967 9.151502 -45.375127 -1.470691 -149.967822 82.575897 31.963367 -17.914238 -40.400734 -23.183166 -55.026093 20.567362 -2.294391 -9.410552 21.248737 -14.919641 
-309.953193 0.000000 417.891916 0.000000 -80.521613 0.000000 -6.126600 84.307327 1.864570 88.998886 2.463171 -179.559083 140.304994 -1.337007 179.858456 -37.245686 2.146959 2.481446 76.759953 -3.157401 -4.964955 21.454557 0.003112 0.000017 -175.092391 -6.476306 -177.488094 -39.770770 2.973004 -4.679922 95.115608 1.639127 -12.011869 21.454551 -0.003089 0.000000 12.136107 -0.434341 1.918687 14.241875 -1.101770 3.769269 13.924445 -1.079137 3.775822 1.126004 -7.411569 -5.448725 -26.158937 12.780736 -12.716749 -169.643921 -74.187305 -12.018608 12.197428 52.441413 31.913218 -37.233098 -23.270489 1.952066 8.575325 -41.505788 -1.061794 -146.979519 82.314604 34.993895 -16.743507 -41.461317 -23.528158 -54.427393 20.669611 -2.281610 -7.340754 22.888965 -11.626212 
-309.449305 0.000000 420.281852 0.000000 -81.162372 0.000000 -6.110324 84.676852 1.857840 88.885179 2.135272 -179.758440 141.173043 -0.948127 179.669538 -35.517619 1.712520 2.873462 75.311359 -3.224269 -4.021717 21.454557 0.003119 0.000019 -172.992833 -5.896275 -178.865813 -37.760304 3.104004 -4.751739 92.708648 1.568271 -11.113880 21.454549 -0.003097 0.000003 11.926400 -0.600819 1.986953 13.816649 -1.434823 3.887999 13.499225 -1.411462 3.896554 1.580243 -7.134156 -5.255872 -25.793436 12.957182 -12.473557 -169.754712 -74.110702 -11.904827 13.393682 53.118721 33.936971 -36.147084 -22.854066 1.897714 8.529023 -35.967349 -0.903074 -145.207820 82.025687 36.796309 -15.378548 -42.477719 -24.330670 -53.740169 20.867850 -2.271786 -5.017634 24.524284 -8.066605 
-308.967153 0.000000 422.590601 0.000000 -81.727254 0.000000 -6.013636 84.922821 1.847688 88.852686 1.863889 -179.893648 141.935141 -0.399594 179.742206 -35.448148 1.627398 2.834162 74.654581 -2.783746 -2.577527 21.454558 0.003121 0.000019 -171.194511 -5.242401 179.941866 -36.459689 3.422694 -4.861092 90.204415 1.555006 -10.163866 21.454550 -0.003102 0.000003 11.734213 -0.738665 2.043752 13.427243 -1.709696 3.988139 13.109819 -1.685725 3.998349 2.075820 -6.988252 -5.146143 -25.433721 13.091031 -12.316689 -170.073185 -73.982549 -11.577885 14.339499 53.631787 35.574367 -35.037988 -22.434393 1.842898 8.111958 -29.362323 -0.453368 -144.089939 81.881208 37.932718 -13.775072 -43.492007 -25.404859 -53.023885 21.045467 -2.257773 -2.673380 25.758114 -4.512928 
-308.507258 0.000000 424.824038 0.000000 -82.219178 0.000000 -5.843471 85.003156 1.831040 88.956467 1.681445 -179.944011 142.521383 0.220765 179.876561 -37.180596 1.906580 2.446714 75.109697 -1.959867 -0.756787 21.454557 0.003116 0.000018 -169.789750 -4.576904 178.984073 -36.174150 3.920025 -5.020474 87.663942 1.614438 -9.191577 21.454553 -0.003099 0.000000 11.574424 -0.836882 2.077581 13.104090 -1.903818 4.047276 12.786662 -1.879494 4.058661 2.509292 -6.961244 -5.127448 -24.944863 13.067331 -12.185771 -170.321197 -73.774075 -11.322878 15.007711 54.000188 36.799284 -33.961396 -21.978229 1.787486 6.980276 -22.168486 0.481401 -143.173401 81.980868 38.856008 -11.953417 -44.533696 -26.598068 -52.319302 21.131370 -2.238099 -0.562600 26.318531 -1.294876 
-308.070142 0.000000 426.988036 0.000000 -82.641322 0.000000 -5.613129 85.013939 1.803970 89.138346 1.528438 179.991453 143.068078 0.766406 -179.944325 -39.761337 2.220424 1.854312 76.432377 -1.144982 0.637941 21.454557 0.003110 0.000016 -169.053015 -3.833996 178.944987 -37.221432 4.033269 -5.632919 84.851603 2.144934 -7.593593 21.454555 -0.003096 0.000000 11.444730 -0.923080 2.099875 12.841660 -2.073630 4.084693 12.524218 -2.049082 4.097106 2.798229 -6.886916 -5.122175 -24.322749 12.932242 -12.002230 -170.560191 -73.587013 -11.077063 15.307554 54.276714 37.656594 -33.045134 -21.475064 1.734538 6.153252 -14.478439 1.769966 -142.515703 82.172926 39.513456 -10.187228 -45.571240 -27.880158 -51.587735 21.237010 -2.221183 1.275545 26.270191 1.292991 
-307.656328 0.000000 429.088471 0.000000 -82.997072 0.000000 -5.342025 85.055322 1.765214 89.329824 1.348362 179.824891 143.721558 1.115760 -179.722523 -42.183357 2.273258 1.240030 78.213614 -0.643511 0.939636 21.454557 0.003109 0.000016 -169.186832 -2.952197 -179.708240 -39.774498 3.285144 -6.944447 81.656206 3.528202 -4.832040 21.454549 -0.003098 0.000006 11.340407 -1.023482 2.122658 12.629480 -2.272638 4.121409 12.312009 -2.247862 4.135022 2.903878 -6.626061 -5.052510 -23.615833 12.766285 -11.713009 -170.934819 -73.506200 -10.692319 15.138698 54.497807 38.179119 -32.373814 -20.934075 1.685275 6.426169 -6.449872 3.546860 -142.486614 82.276621 39.538716 -8.738944 -46.540628 -29.206165 -50.791376 21.457499 -2.210354 2.854974 25.775608 3.106261 
-307.266338 0.000000 431.131217 0.000000 -83.289985 0.000000 -5.067384 85.105568 1.723256 89.535582 1.182305 179.631712 144.461792 1.314098 -179.587161 -44.348871 2.172890 0.762748 80.096063 -0.360898 0.771491 21.454558 0.003108 0.000016 -169.998627 -1.995614 -177.991192 -43.473593 2.230129 -8.292651 78.635489 5.403991 -1.085418 21.454546 -0.003100 0.000010 11.264564 -1.120508 2.136668 12.474513 -2.464925 4.140693 12.156999 -2.440023 4.155466 2.941202 -6.297298 -4.931155 -22.952292 12.631916 -11.387709 -171.576714 -73.420370 -10.033086 14.403076 54.606117 38.260301 -31.790097 -20.419329 1.639196 6.820213 1.245797 6.077860 -143.862876 82.238017 38.148698 -7.533863 -47.280911 -30.405785 -49.981175 21.639428 -2.194200 4.065779 25.062714 4.473527 
-306.900693 0.000000 433.122148 0.000000 -83.523756 0.000000 -4.820607 85.121875 1.684644 89.783527 1.070718 179.499393 145.256398 1.438719 -179.700463 -46.357676 2.114270 0.535351 81.825698 -0.188241 0.874738 21.454558 0.003100 0.000017 -171.265143 -1.058102 -176.969666 -47.928199 1.571116 -9.052312 76.330974 7.202742 3.169939 21.454550 -0.003098 0.000005 11.223618 -1.193518 2.129078 12.390594 -2.608244 4.118817 12.073030 -2.583470 4.134460 3.007580 -6.054913 -4.786866 -22.426655 12.576215 -11.104287 -172.492461 -73.221464 -9.091741 13.044145 54.559990 37.843055 -31.136485 -19.995207 1.597875 6.314311 8.046324 9.189722 -146.878423 82.050568 35.105221 -6.500414 -47.699739 -31.335291 -49.191349 21.637057 -2.166606 4.835443 24.300378 5.681006 
-306.559916 0.000000 435.067138 0.000000 -83.702187 0.000000 -4.592715 85.099083 1.636065 90.122377 0.956989 179.399046 146.190868 1.517699 179.767983 -48.178279 2.231639 0.572070 83.446961 -0.168463 1.150867 21.454558 0.003096 0.000017 -172.888672 -0.156484 -176.459836 -52.935444 1.256891 -9.363138 74.715110 8.558008 6.628791 21.454557 -0.003096 -0.000001 11.229196 -1.253299 2.094445 12.400862 -2.723931 4.043298 12.083230 -2.699608 4.059642 2.978797 -5.937400 -4.624670 -21.923818 12.590911 -10.857833 -173.283033 -73.019458 -8.278318 11.147617 54.496599 37.182596 -30.493949 -19.673515 1.564397 5.356181 14.001703 12.019308 -149.758232 81.841914 32.197286 -5.854766 -48.081314 -32.129585 -48.292025 21.584742 -2.135010 5.334304 23.409613 6.317580 
-306.244528 0.000000 436.972063 0.000000 -83.829169 0.000000 -4.371292 85.049049 1.566782 90.576681 0.783238 179.290569 147.340298 1.573020 178.774993 -49.750942 2.564598 0.826051 85.031413 -0.325940 1.351570 21.454557 0.003103 0.000017 -174.799821 0.714343 -176.062796 -58.286247 1.069734 -9.477027 73.675616 9.202745 8.139587 21.454557 -0.003098 -0.000002 11.284768 -1.313052 2.030131 12.512016 -2.838021 3.907225 12.194289 -2.814508 3.924254 2.749506 -5.934189 -4.445749 -21.333983 12.640442 -10.622131 -173.684904 -72.945184 -7.864816 8.859638 54.546699 36.552409 -30.013349 -19.470616 1.542104 4.582040 19.068822 13.851005 -151.104590 81.777510 30.835976 -5.758408 -48.725336 -32.953597 -47.173965 21.627657 -2.103222 5.739303 22.268558 5.983604 
-305.955051 0.000000 438.842795 0.000000 -83.908659 0.000000 -4.169757 85.014076 1.497624 91.053355 0.581758 179.208571 148.619342 1.618809 177.790056 -51.040906 2.840087 1.121053 86.471888 -0.529673 1.481419 21.454558 0.003112 0.000017 -176.982632 1.515598 -175.766039 -63.627808 1.007187 -9.470842 73.585909 9.211429 8.126014 21.454555 -0.003101 0.000001 11.355985 -1.364426 1.937313 12.655614 -2.932651 3.714633 12.337780 -2.910296 3.732233 2.511531 -5.957759 -4.257947 -20.776706 12.642273 -10.366736 -174.213387 -72.969905 -7.322078 6.496555 54.615116 36.063391 -29.888449 -19.473006 1.539404 4.375936 22.630266 14.769246 -151.641971 81.864208 30.289474 -5.954687 -49.616378 -33.734870 -45.983004 21.674063 -2.067848 5.974147 20.825646 5.034828 
